<svg width="84" height="84" viewBox="0 0 84 84" fill="none" xmlns="http://www.w3.org/2000/svg">
<path fill-rule="evenodd" clip-rule="evenodd" d="M67.1295 16.8705C53.2509 2.99189 30.7492 2.99188 16.8705 16.8705C2.99189 30.7491 2.99188 53.2508 16.8705 67.1295C30.7491 81.0081 53.2508 81.0081 67.1295 67.1295C81.0076 53.2514 81.0081 30.7508 67.1309 16.872L67.1295 16.8705ZM71.6985 12.3015C88.1005 28.7036 88.1005 55.2965 71.6985 71.6985C55.2964 88.1005 28.7035 88.1005 12.3015 71.6985C-4.10051 55.2964 -4.10052 28.7035 12.3015 12.3015C28.7036 -4.10051 55.2965 -4.10052 71.6985 12.3015ZM37.6526 32.8372C36.986 34.3188 36.6151 35.9623 36.6151 37.6924C36.6151 44.2348 41.9188 49.5385 48.4613 49.5385C48.5304 49.5385 48.5993 49.538 48.6681 49.5368C48.8801 49.506 49.096 49.4962 49.3127 49.5085C55.4609 49.0723 60.3075 43.9493 60.3075 37.6924C60.3075 31.1493 55.0075 25.8462 48.4613 25.8462C43.7767 25.8462 39.7272 28.5654 37.8051 32.5115C37.7602 32.6232 37.7093 32.7319 37.6526 32.8372ZM30.2548 35.7562C26.361 37.6873 23.692 41.6829 23.692 46.3078C23.692 52.8502 28.9957 58.1539 35.5382 58.1539C38.4915 58.1539 41.1883 57.0621 43.2605 55.2508C35.6827 53.0098 30.1536 45.9968 30.1536 37.6924C30.1536 37.0384 30.1879 36.3925 30.2548 35.7562ZM51.1374 55.806C47.9378 61.0609 42.1819 64.6155 35.5382 64.6155C25.4271 64.6155 17.2305 56.4189 17.2305 46.3078C17.2305 37.1323 23.989 29.6067 32.761 28.2704C35.9629 22.9464 41.7961 19.3847 48.4613 19.3847C58.5773 19.3847 66.769 27.5819 66.769 37.6924C66.769 46.8943 59.9835 54.5113 51.1374 55.806Z" fill="#FBAB34"/>
</svg>
