<svg width="36" height="37" viewBox="0 0 36 37" fill="none" xmlns="http://www.w3.org/2000/svg">
<path fill-rule="evenodd" clip-rule="evenodd" d="M10.7842 7.38971C11.0568 7.76624 10.9725 8.29247 10.596 8.56506C9.78639 9.15117 9.05039 9.82585 8.40529 10.5815C8.10347 10.935 7.5722 10.977 7.21866 10.6751C6.86512 10.3733 6.82319 9.84205 7.12501 9.48851C7.85953 8.62813 8.69467 7.86334 9.60884 7.20151C9.98537 6.92892 10.5116 7.01318 10.7842 7.38971Z" fill="#FBAB34"/>
<path fill-rule="evenodd" clip-rule="evenodd" d="M26.1809 29.5006C26.4396 29.8868 26.3363 30.4096 25.9501 30.6683C23.6765 32.1915 20.9421 33.0822 18 33.0822C16.5499 33.0822 15.1522 32.8627 13.8349 32.4622C13.3901 32.327 13.1392 31.8569 13.2743 31.4121C13.4095 30.9674 13.8797 30.7164 14.3244 30.8516C15.488 31.2053 16.7208 31.3988 18 31.3988C20.5973 31.3988 23.0073 30.6136 25.0132 29.2698C25.3994 29.0111 25.9222 29.1144 26.1809 29.5006Z" fill="#FBAB34"/>
<path fill-rule="evenodd" clip-rule="evenodd" d="M5.03452 22.4692C5.47266 22.3139 5.95373 22.5432 6.10901 22.9814C6.89646 25.2034 8.27728 27.1421 10.0733 28.5931C10.4348 28.8853 10.4911 29.4152 10.199 29.7768C9.90684 30.1384 9.37689 30.1947 9.01532 29.9025C6.9777 28.2562 5.41375 26.059 4.52233 23.5437C4.36705 23.1055 4.59637 22.6245 5.03452 22.4692Z" fill="#FBAB34"/>
<path fill-rule="evenodd" clip-rule="evenodd" d="M5.59672 13.4912C6.03489 13.6464 6.26426 14.1275 6.10904 14.5656C5.64045 15.8884 5.37477 17.2988 5.37477 18.7735C5.37477 19.2384 4.99794 19.6152 4.53309 19.6152C4.06824 19.6152 3.69141 19.2384 3.69141 18.7735C3.69141 17.0941 3.99433 15.4939 4.5223 14.0035C4.67752 13.5653 5.15856 13.336 5.59672 13.4912Z" fill="#FBAB34"/>
<path fill-rule="evenodd" clip-rule="evenodd" d="M18 6.1483C16.7208 6.1483 15.488 6.34179 14.3244 6.69548C13.8797 6.83068 13.4095 6.57973 13.2743 6.13498C13.1392 5.69022 13.3901 5.22008 13.8349 5.08488C15.1522 4.68442 16.5499 4.46493 18 4.46493C25.9031 4.46493 32.3086 10.8705 32.3086 18.7735C32.3086 21.7261 31.3959 24.4532 29.8652 26.7254C29.6054 27.111 29.0824 27.213 28.6968 26.9532C28.3113 26.6935 28.2093 26.1705 28.469 25.7849C29.8232 23.7747 30.6253 21.3723 30.6253 18.7735C30.6253 11.8002 24.9734 6.1483 18 6.1483Z" fill="#FBAB34"/>
<path fill-rule="evenodd" clip-rule="evenodd" d="M13.2454 18.7436C13.2454 18.2788 13.6223 17.9019 14.0871 17.9019H20.5138C22.5005 17.9019 24.1118 19.5132 24.1118 21.4999C24.1118 23.4853 22.5017 25.0948 20.5153 25.0948H14.0871C13.6223 25.0948 13.2454 24.7179 13.2454 24.2531V18.7436ZM14.9288 19.5853V23.4114H20.5153C21.5726 23.4114 22.4284 22.555 22.4284 21.4999C22.4284 20.4429 21.5708 19.5853 20.5138 19.5853H14.9288Z" fill="#FBAB34"/>
<path fill-rule="evenodd" clip-rule="evenodd" d="M13.2454 13.0606C13.2454 12.5957 13.6223 12.2189 14.0871 12.2189H19.8181C21.8525 12.2189 23.5013 13.8676 23.5013 15.9021C23.5013 17.9366 21.8525 19.5853 19.8181 19.5853C19.3532 19.5853 18.9764 19.2085 18.9764 18.7436C18.9764 18.2788 19.3532 17.9019 19.8181 17.9019C20.9229 17.9019 21.8179 17.0069 21.8179 15.9021C21.8179 14.7973 20.9229 13.9023 19.8181 13.9023H14.9288V18.7436C14.9288 19.2085 14.552 19.5853 14.0871 19.5853C13.6223 19.5853 13.2454 19.2085 13.2454 18.7436V13.0606Z" fill="#FBAB34"/>
<path fill-rule="evenodd" clip-rule="evenodd" d="M17.6768 10.5864C18.1417 10.5864 18.5185 10.9632 18.5185 11.4281V13.0561C18.5185 13.5209 18.1417 13.8978 17.6768 13.8978C17.212 13.8978 16.8351 13.5209 16.8351 13.0561V11.4281C16.8351 10.9632 17.212 10.5864 17.6768 10.5864Z" fill="#FBAB34"/>
<path fill-rule="evenodd" clip-rule="evenodd" d="M17.6768 23.4413C18.1417 23.4413 18.5185 23.8182 18.5185 24.283V26.119C18.5185 26.5839 18.1417 26.9607 17.6768 26.9607C17.212 26.9607 16.8351 26.5839 16.8351 26.119V24.283C16.8351 23.8182 17.212 23.4413 17.6768 23.4413Z" fill="#FBAB34"/>
</svg>
