<svg width="37" height="37" viewBox="0 0 37 37" fill="none" xmlns="http://www.w3.org/2000/svg">
<path fill-rule="evenodd" clip-rule="evenodd" d="M5.00379 4.57315C5.46864 4.57315 5.84548 4.94999 5.84548 5.41483V29.3561C5.84548 30.5446 6.80785 31.507 7.99644 31.507H31.9376C32.4025 31.507 32.7793 31.8839 32.7793 32.3487C32.7793 32.8136 32.4025 33.1904 31.9376 33.1904H7.99644C5.87815 33.1904 4.16211 31.4743 4.16211 29.3561V5.41483C4.16211 4.94999 4.53894 4.57315 5.00379 4.57315Z" fill="#FBAB34"/>
<path fill-rule="evenodd" clip-rule="evenodd" d="M32.4765 9.25719C32.8336 9.55477 32.8818 10.0855 32.5843 10.4426L25.7042 18.6993C25.1292 19.3888 24.2122 19.6882 23.3411 19.471L23.3405 19.4708L19.1778 18.4294C18.9345 18.3686 18.677 18.4523 18.5158 18.6455V18.6455L11.6357 26.9022C11.3381 27.2593 10.8074 27.3076 10.4503 27.01C10.0932 26.7124 10.0449 26.1817 10.3425 25.8246L17.2226 17.5679C17.7975 16.8784 18.7163 16.5789 19.5861 16.7963L23.7484 17.8376V17.8376C23.9934 17.8987 24.2497 17.8149 24.411 17.6217V17.6217L31.291 9.365C31.5886 9.00788 32.1193 8.95962 32.4765 9.25719Z" fill="#FBAB34"/>
</svg>
