<svg width="16" height="16" viewBox="0 0 16 16" fill="none" xmlns="http://www.w3.org/2000/svg">
  <path fill-rule="evenodd" clip-rule="evenodd" d="M4.10407 2.91332C3.77521 2.58446 3.24201 2.58446 2.91315 2.91332C2.58429 3.24218 2.58429 3.77537 2.91315 4.10424L6.80892 8.00001L2.91315 11.8958C2.58429 12.2246 2.58429 12.7578 2.91315 13.0867C3.24201 13.4156 3.77521 13.4156 4.10407 13.0867L7.99984 9.19092L11.8956 13.0867C12.2245 13.4156 12.7577 13.4156 13.0865 13.0867C13.4154 12.7578 13.4154 12.2246 13.0865 11.8958L9.19075 8.00001L13.0865 4.10424C13.4154 3.77537 13.4154 3.24218 13.0865 2.91332C12.7577 2.58446 12.2245 2.58446 11.8956 2.91332L7.99984 6.80909L4.10407 2.91332Z" fill="#8C8A97"/>
</svg>
