<svg width="37" height="37" viewBox="0 0 37 37" fill="none" xmlns="http://www.w3.org/2000/svg">
<path fill-rule="evenodd" clip-rule="evenodd" d="M7.9703 4.13628C5.85201 4.13628 4.13597 5.85232 4.13597 7.97061V22.2484C3.26078 22.5864 2.63965 23.4361 2.63965 24.4302V25.9265C2.63965 27.2173 3.68684 28.2645 4.97766 28.2645H22.0919V30.4155C22.0919 31.7063 23.1391 32.7535 24.4299 32.7535H31.9115C33.2023 32.7535 34.2495 31.7063 34.2495 30.4155V17.6967C34.2495 16.4059 33.2023 15.3587 31.9115 15.3587H31.2569V7.97061C31.2569 5.85232 29.5408 4.13628 27.4225 4.13628H7.9703ZM32.5662 26.5812V17.6967C32.5662 17.3356 32.2726 17.0421 31.9115 17.0421H24.4299C24.0688 17.0421 23.7752 17.3356 23.7752 17.6967V22.9306L23.7752 22.9339L23.7752 22.9372V26.5812H32.5662ZM23.7752 28.2645H32.5662V30.4155C32.5662 30.7766 32.2726 31.0701 31.9115 31.0701H24.4299C24.0688 31.0701 23.7752 30.7766 23.7752 30.4155V28.2645ZM29.5735 7.97061V15.3587H24.4299C23.1391 15.3587 22.0919 16.4059 22.0919 17.6967V22.0922H5.81933V7.97061C5.81933 6.78202 6.78171 5.81964 7.9703 5.81964H27.4225C28.6111 5.81964 29.5735 6.78202 29.5735 7.97061ZM4.97766 23.7756H22.0919V26.5812H4.97766C4.61653 26.5812 4.32301 26.2877 4.32301 25.9265V24.4302C4.32301 24.0691 4.61653 23.7756 4.97766 23.7756Z" fill="#FBAB34"/>
</svg>
