<svg width="16" height="16" viewBox="0 0 16 16" fill="none" xmlns="http://www.w3.org/2000/svg">
<path fill-rule="evenodd" clip-rule="evenodd" d="M1.23077 3.91303C1.23077 3.34623 1.68961 2.88739 2.25641 2.88739H13.7436C14.3104 2.88739 14.7692 3.34623 14.7692 3.91303V12.0878C14.7692 12.6536 14.3106 13.1126 13.7436 13.1126H2.25641C1.68961 13.1126 1.23077 12.6538 1.23077 12.087V3.91303ZM2.25641 14.3434H13.7436C14.9899 14.3434 16 13.3337 16 12.0878V3.91303C16 2.66649 14.9901 1.65662 13.7436 1.65662H2.25641C1.00988 1.65662 0 2.66649 0 3.91303V12.087C0 13.3335 1.00988 14.3434 2.25641 14.3434ZM4.21406 5.01079C3.92262 4.83593 3.54462 4.93044 3.36976 5.22187C3.1949 5.5133 3.2894 5.89131 3.58083 6.06617L7.6834 8.52771C7.87828 8.64464 8.12174 8.64464 8.31662 8.52771L12.4192 6.06617C12.7106 5.89131 12.8051 5.5133 12.6303 5.22187C12.4554 4.93044 12.0774 4.83593 11.786 5.01079L8.00001 7.28236L4.21406 5.01079Z" fill="#E0DEEA"/>
</svg>
