<svg width="16" height="16" viewBox="0 0 16 16" fill="none" xmlns="http://www.w3.org/2000/svg">
<path fill-rule="evenodd" clip-rule="evenodd" d="M15.7492 8.08114C15.999 8.23725 16.075 8.56629 15.9188 8.81607C15.4506 9.56537 14.8941 10.247 14.2615 10.8407L15.5426 12.1218C15.7508 12.33 15.7508 12.6678 15.5426 12.8761C15.3343 13.0843 14.9966 13.0843 14.7884 12.8761L13.4412 11.5288C12.5919 12.1631 11.6362 12.653 10.596 12.9612L11.0752 14.7496C11.1514 15.0341 10.9825 15.3265 10.698 15.4028C10.4135 15.4791 10.1211 15.3102 10.0448 15.0256L9.55644 13.2028C9.05325 13.2887 8.53371 13.3333 8 13.3333C7.46628 13.3333 6.94674 13.2887 6.44354 13.2028L5.95519 15.0256C5.87897 15.3102 5.58653 15.4791 5.30201 15.4028C5.01749 15.3265 4.84864 15.0341 4.92486 14.7497L5.40399 12.9612C4.36385 12.653 3.40803 12.1631 2.55883 11.5288L1.21163 12.876C1.00335 13.0843 0.665662 13.0843 0.457384 12.876C0.249106 12.6678 0.249106 12.33 0.457384 12.1218L1.73847 10.8407C1.10594 10.247 0.549454 9.56537 0.0811389 8.81607C-0.0749725 8.56629 0.000958475 8.23725 0.250735 8.08114C0.500512 7.92503 0.82955 8.00096 0.985661 8.25074C1.49711 9.06905 2.1216 9.79272 2.83982 10.3923C2.85136 10.4011 2.86261 10.4105 2.87357 10.4204C4.27623 11.5791 6.03238 12.2667 8 12.2667C10.995 12.2667 13.5001 10.6735 15.0143 8.25074C15.1705 8.00096 15.4995 7.92503 15.7492 8.08114Z" fill="#E0DEEA"/>
</svg>
