<svg width="16" height="16" viewBox="0 0 16 16" fill="none" xmlns="http://www.w3.org/2000/svg">
<path fill-rule="evenodd" clip-rule="evenodd" d="M1.45152 7.73141C2.16949 6.40372 3.19066 5.16811 4.35277 4.27003C5.51824 3.36935 6.78624 2.83691 8.00749 2.83691C9.22874 2.83691 10.4967 3.36934 11.6622 4.27011C12.8243 5.16831 13.8455 6.40417 14.5635 7.73232C14.5928 7.7869 14.5929 7.85453 14.5636 7.90916C13.8456 9.23696 12.8244 10.4727 11.6622 11.3708C10.4967 12.2715 9.22875 12.804 8.00749 12.804C6.78624 12.804 5.51825 12.2715 4.35279 11.3708C3.19068 10.4726 2.1695 9.23677 1.45153 7.90868C1.42208 7.85397 1.42208 7.78612 1.45152 7.73141ZM1.45152 7.73141C1.45155 7.73135 1.45159 7.73128 1.45162 7.73122L0.925321 7.44727L1.45135 7.73171C1.45141 7.73161 1.45146 7.73151 1.45152 7.73141ZM8.00749 1.64087C6.44196 1.64087 4.92317 2.31764 3.6214 3.32365C2.31636 4.3322 1.1899 5.70065 0.399267 7.16282L0.399001 7.16331C0.178197 7.57258 0.178197 8.0675 0.399001 8.47676L0.399233 8.47719C1.18986 9.93977 2.31632 11.3084 3.62138 12.3171C4.92316 13.3232 6.44196 14 8.00749 14C9.57302 14 11.0918 13.3232 12.3936 12.3172C13.6986 11.3087 14.8251 9.94021 15.6157 8.47805L15.616 8.47755C15.8368 8.06829 15.8368 7.57337 15.616 7.16411L15.6157 7.16368C14.8251 5.7011 13.6987 4.33243 12.3936 3.32377C11.0918 2.31764 9.57302 1.64087 8.00749 1.64087ZM6.71875 6.53168C7.43049 5.81994 8.58446 5.81994 9.2962 6.53168C10.0079 7.24342 10.0079 8.39739 9.2962 9.10913C8.58446 9.82088 7.43049 9.82088 6.71875 9.10913C6.00701 8.39739 6.00701 7.24342 6.71875 6.53168ZM5.91328 5.72621C7.06987 4.56962 8.94509 4.56962 10.1017 5.72621C11.2583 6.8828 11.2583 8.75802 10.1017 9.91461C8.94509 11.0712 7.06987 11.0712 5.91328 9.91461C4.75669 8.75802 4.75669 6.8828 5.91328 5.72621Z" fill="#E0DEEA"/>
</svg>
