<svg width="16" height="16" viewBox="0 0 16 16" fill="none" xmlns="http://www.w3.org/2000/svg">
<path fill-rule="evenodd" clip-rule="evenodd" d="M5.36956 3.90476C5.36956 2.45184 6.54759 1.27381 8.00051 1.27381C9.45343 1.27381 10.6315 2.45184 10.6315 3.90476V4.91666H5.36956V3.90476ZM4.75964 6.13095C4.76057 6.13095 4.76149 6.13095 4.76242 6.13095C4.76334 6.13095 4.76427 6.13095 4.76519 6.13095H11.2358C11.2368 6.13095 11.2377 6.13095 11.2386 6.13095C11.2395 6.13095 11.2405 6.13095 11.2414 6.13095H12.048C12.6072 6.13095 13.0599 6.58364 13.0599 7.14285V13.619C13.0599 14.1782 12.6072 14.6309 12.048 14.6309H3.95275C3.39354 14.6309 2.94085 14.1782 2.94085 13.619V7.14285C2.94085 6.58364 3.39354 6.13095 3.95275 6.13095H4.75964ZM4.15527 4.91666V3.90476C4.15527 1.78121 5.87696 0.0595245 8.00051 0.0595245C10.1241 0.0595245 11.8457 1.78121 11.8457 3.90476V4.91666H12.048C13.2778 4.91666 14.2742 5.91301 14.2742 7.14285V13.619C14.2742 14.8489 13.2778 15.8452 12.048 15.8452H3.95275C2.72291 15.8452 1.72656 14.8489 1.72656 13.619V7.14285C1.72656 5.91301 2.72291 4.91666 3.95275 4.91666H4.15527ZM8.85905 10.2277C8.78212 10.3046 8.69744 10.3691 8.60751 10.421V12.0729C8.60751 12.4082 8.33569 12.68 8.00037 12.68C7.66506 12.68 7.39323 12.4082 7.39323 12.0729V10.421C7.30334 10.369 7.21869 10.3046 7.14179 10.2277C6.66758 9.75347 6.66758 8.98462 7.14179 8.51042C7.616 8.03621 8.38484 8.03621 8.85905 8.51042C9.33326 8.98462 9.33326 9.75347 8.85905 10.2277Z" fill="#E0DEEA"/>
</svg>
