<svg width="16" height="16" viewBox="0 0 16 16" fill="none" xmlns="http://www.w3.org/2000/svg">
<path fill-rule="evenodd" clip-rule="evenodd" d="M11.3998 11C11.3998 10.6667 11.6665 10.4 11.9998 10.4C12.3332 10.4 12.5998 10.6667 12.5332 11V11.8C12.5332 13 11.5332 14 10.3332 14H7.73316C7.53316 15.6 5.79983 16.4667 4.39983 15.6L1.19983 13.6C0.599829 13.2 0.199829 12.4667 0.199829 11.7333V2.26665C0.199829 0.999984 1.2665 0.0666504 2.39983 0.0666504H10.3998C11.5998 0.0666504 12.5998 1.06665 12.5998 2.26665V3.06665C12.5998 3.39998 12.3332 3.66665 11.9998 3.66665C11.6665 3.66665 11.3998 3.39998 11.3998 3.06665V2.26665C11.3998 1.73332 10.9332 1.26665 10.3998 1.26665H4.93316L6.79983 2.39998C7.39983 2.79998 7.79983 3.53332 7.79983 4.26665V12.8H10.3998C10.9332 12.8 11.3998 12.3333 11.3998 11.8V11ZM6.59983 13.7333V13.4V4.26665C6.59983 3.93332 6.39983 3.59998 6.13316 3.39998L2.93316 1.39998C2.2665 0.999984 1.39983 1.46665 1.39983 2.26665V11.7333C1.39983 12.0667 1.59983 12.4 1.8665 12.6L5.0665 14.6C5.73316 15 6.59983 14.5333 6.59983 13.7333ZM15.7331 6.79999C15.7998 6.86665 15.7998 6.93332 15.7998 6.99999C15.7998 7.06665 15.7831 7.11665 15.7664 7.16666C15.7498 7.21665 15.7331 7.26665 15.7331 7.33332C15.6998 7.36665 15.6831 7.39999 15.6664 7.43332C15.6498 7.46666 15.6331 7.49999 15.5998 7.53332L13.9998 9.13332C13.7331 9.39999 13.3998 9.39999 13.1331 9.13332C12.8664 8.86665 12.8664 8.53332 13.1331 8.26665L13.7331 7.66665H10.3998C10.0664 7.66665 9.79976 7.39999 9.79976 7.06665C9.79976 6.73332 10.0664 6.46665 10.3998 6.46665H13.7331L13.1331 5.86665C12.8664 5.59999 12.8664 5.26665 13.1331 4.99999C13.3998 4.73332 13.7331 4.73332 13.9998 4.99999L15.5998 6.59999C15.6664 6.66665 15.7331 6.73332 15.7331 6.79999Z" fill="#8C8A97"/>
</svg>
