<svg width="16" height="16" viewBox="0 0 16 16" fill="none" xmlns="http://www.w3.org/2000/svg">
<path fill-rule="evenodd" clip-rule="evenodd" d="M6.32228 2.00868C7.24882 1.08214 8.75103 1.08214 9.67757 2.00868C10.6041 2.93522 10.6041 4.43743 9.67757 5.36397C8.75103 6.29051 7.24882 6.29051 6.32228 5.36397C5.39573 4.43743 5.39573 2.93522 6.32228 2.00868ZM5.4072 1.0936C6.83912 -0.338328 9.16072 -0.338328 10.5926 1.0936C12.0246 2.52553 12.0246 4.84712 10.5926 6.27905C9.16072 7.71098 6.83912 7.71098 5.4072 6.27905C3.97527 4.84712 3.97527 2.52553 5.4072 1.0936ZM7.99995 8.65401C6.15981 8.65401 4.31784 9.09889 2.91377 9.91628C1.51553 10.7303 0.450928 11.9844 0.450928 13.6079V14.4706C0.450928 15.3042 1.12714 15.9804 1.96073 15.9804H14.0392C14.8728 15.9804 15.549 15.3042 15.549 14.4706V13.6079C15.549 11.9844 14.4844 10.7303 13.0861 9.91628C11.6821 9.09889 9.84008 8.65401 7.99995 8.65401ZM1.74505 13.6079C1.74505 12.6207 2.38523 11.7214 3.56487 11.0347C4.73869 10.3513 6.34769 9.94813 7.99995 9.94813C9.6522 9.94813 11.2612 10.3513 12.435 11.0347C13.6147 11.7214 14.2549 12.6207 14.2549 13.6079V14.4706C14.2549 14.5895 14.158 14.6863 14.0392 14.6863H1.96073C1.84186 14.6863 1.74505 14.5895 1.74505 14.4706V13.6079Z" fill="#E0DEEA"/>
</svg>
