<svg width="160" height="160" viewBox="0 0 160 160" fill="none" xmlns="http://www.w3.org/2000/svg">
<rect width="160" height="160" fill="#C4C4C4"/>
<path d="M4.79244 148.329L0 160H80H159.5L152.902 150.383C145.371 139.886 138.981 135.093 129.168 132.583L122.778 130.985C122.778 130.985 107.716 127.106 100.413 124.595C96.7617 123.226 93.5667 120.716 93.5667 118.89C93.5667 117.293 98.5874 110.903 104.521 104.969C117.072 92.4176 125.516 76.671 125.516 65.7169C125.516 45.8625 113.421 24.4106 97.9027 16.4232C94.4796 14.5975 87.1768 13 81.6997 13C51.804 13.4564 31.4932 43.5803 38.796 76.8992C41.0781 87.8534 43.3602 91.2765 55.2272 102.459C70.0609 116.608 70.9738 121.172 59.5632 123.683C51.5758 125.508 29.2111 131.67 29.2111 131.67C22.3647 131.67 10.0413 139.886 4.79244 148.329Z" fill="#E7E7E7"/>
<mask id="mask0_166_58" style="mask-type:alpha" maskUnits="userSpaceOnUse" x="0" y="13" width="160" height="147">
<path d="M4.79244 148.329L0 160H80H159.5L152.902 150.383C145.371 139.886 138.981 135.093 129.168 132.583L122.778 130.985C122.778 130.985 107.716 127.106 100.413 124.595C96.7617 123.226 93.5667 120.716 93.5667 118.89C93.5667 117.293 98.5874 110.903 104.521 104.969C117.072 92.4176 125.516 76.671 125.516 65.7169C125.516 45.8625 113.421 24.4106 97.9027 16.4232C94.4796 14.5975 87.1768 13 81.6997 13C51.804 13.4564 31.4932 43.5803 38.796 76.8992C41.0781 87.8534 43.3602 91.2765 55.2272 102.459C70.0609 116.608 70.9738 121.172 59.5632 123.683C51.5758 125.508 29.2111 131.67 29.2111 131.67C22.3647 131.67 10.0413 139.886 4.79244 148.329Z" fill="#E7E7E7"/>
</mask>
<g mask="url(#mask0_166_58)">
<path d="M34.2318 129.388L52.4887 124.824C52.4887 124.824 51.8041 127.562 56.8247 134.637C66.866 149.014 94.936 150.84 104.977 137.603C109.542 131.67 108.401 127.106 108.401 127.106C118.214 129.616 123.234 130.529 123.234 130.529L125.06 146.275L126.657 160.196H77.5H31.9496L33.3189 146.504C34.46 133.952 34.2318 129.388 34.2318 129.388Z" fill="#767676"/>
</g>
</svg>
